<svg width="139" height="40" viewBox="0 0 139 40" fill="none" xmlns="http://www.w3.org/2000/svg">
<g clip-path="url(#clip0_407_12002)">
<mask id="mask0_407_12002" style="mask-type:alpha" maskUnits="userSpaceOnUse" x="-1" y="-3" width="32" height="32">
<path d="M30.9835 13.1602C30.9835 21.8296 23.9556 28.8575 15.2862 28.8575C6.6168 28.8575 -0.411133 21.8296 -0.411133 13.1602C-0.411133 4.49082 6.6168 -2.53711 15.2862 -2.53711C23.9556 -2.53711 30.9835 4.49082 30.9835 13.1602Z" fill="#C4C4C4"/>
</mask>
<g mask="url(#mask0_407_12002)">
<path fill-rule="evenodd" clip-rule="evenodd" d="M12.2158 40.0165C16.2262 39.3093 19.2729 35.8076 19.2729 31.5944C19.2729 26.871 15.4439 23.042 10.7205 23.042C8.73188 23.042 6.90178 23.7207 5.44922 24.8592C5.93476 24.7735 6.43442 24.7289 6.94452 24.7289C11.6679 24.7289 15.4969 28.5579 15.4969 33.2813C15.4969 36.016 14.2133 38.4509 12.2158 40.0165Z" fill="url(#paint0_linear_407_12002)"/>
</g>
<path fill-rule="evenodd" clip-rule="evenodd" d="M7.01314 12.219C9.73835 7.7684 14.6457 4.79883 20.2466 4.79883C21.5499 4.79883 22.8157 4.95962 24.0251 5.26244C24.2405 5.30908 24.4517 5.36694 24.6581 5.43538C24.7042 5.44901 24.7501 5.46286 24.796 5.47691L24.7957 5.48281C27.185 6.33843 28.8943 8.6227 28.8943 11.3062C28.8943 11.3383 28.8941 11.3702 28.8936 11.4021C29.0887 12.8935 29.863 14.2027 30.9833 15.0966L30.9833 15.097C33.3244 16.5902 34.8771 19.2102 34.8771 22.1929C34.8771 23.4325 34.6089 24.6095 34.1274 25.6689C34.1303 25.5584 34.1318 25.4475 34.1318 25.3362C34.1318 23.2912 33.6393 21.3611 32.7665 19.6582C33.0847 20.7968 33.2548 21.9972 33.2548 23.2373C33.2548 30.5661 27.3136 36.5072 19.9849 36.5072C18.0182 36.5072 16.1515 36.0794 14.4727 35.3118C15.0019 35.3823 15.5419 35.4186 16.0904 35.4186C22.7935 35.4186 28.2275 29.9847 28.2275 23.2815C28.2275 23.0448 28.2207 22.8096 28.2073 22.5762C28.1491 28.4981 23.3305 33.2807 17.3948 33.2807C12.546 33.2807 8.44263 30.0892 7.07072 25.6923C8.3106 25.7707 9.55181 26.1214 10.7055 26.7682C11.8122 28.713 13.9036 30.0245 16.3012 30.0245C19.8546 30.0245 22.7351 27.144 22.7351 23.5907C22.7351 20.9131 21.0996 18.6176 18.773 17.6487C19.7577 18.1925 20.5721 19.0068 21.1159 19.9914C20.359 19.7792 19.5609 19.6658 18.7362 19.6658C17.7326 19.6658 16.7682 19.8338 15.8697 20.1433L15.8716 20.1362C14.8517 20.8155 13.6268 21.2114 12.3095 21.2114C8.97822 21.2114 6.23828 18.6796 5.90883 15.4353C5.88686 15.219 5.87561 14.9995 5.87561 14.7774C5.87561 14.532 5.88935 14.2898 5.91611 14.0515C5.95048 13.7454 6.00633 13.4458 6.0821 13.1543L6.08211 13.1543L6.08212 13.1543C6.80146 15.9218 9.31688 17.965 12.3095 17.965C13.426 17.965 14.476 17.6806 15.3912 17.1803C16.3298 16.619 17.1134 15.8254 17.6626 14.8788L17.6528 14.8651L17.6413 14.8486C16.6332 15.1754 15.5574 15.352 14.4404 15.352C11.5281 15.352 8.8963 14.1517 7.01314 12.219ZM4.9021 20.4723C5.74772 21.1494 6.34512 22.1237 6.53601 23.2368C7.32006 22.823 8.19936 22.5654 9.13247 22.5055C8.49238 21.2517 7.18858 20.3932 5.68426 20.3932C5.41631 20.3932 5.15471 20.4204 4.9021 20.4723Z" fill="url(#paint1_linear_407_12002)"/>
</g>
<path d="M48.9128 14.4107C50.0211 14.4107 51.0062 14.6922 51.8683 15.2551C52.7479 15.8181 53.4252 16.6097 53.9002 17.6301C54.3927 18.6504 54.639 19.8291 54.639 21.1661C54.639 22.4855 54.4015 23.6466 53.9266 24.6494C53.4516 25.6521 52.7743 26.4262 51.8947 26.9716C51.0326 27.5169 50.0387 27.7896 48.9128 27.7896C47.9452 27.7896 47.092 27.5873 46.3531 27.1827C45.6142 26.7605 45.0513 26.1623 44.6642 25.3883V31.2729C44.6642 31.6423 44.5411 31.9326 44.2948 32.1437C44.0661 32.3724 43.7582 32.4867 43.3712 32.4867C42.9666 32.4867 42.6323 32.3724 42.3685 32.1437C42.1222 31.915 41.999 31.6071 41.999 31.2201V15.7565C41.999 15.3695 42.1222 15.0616 42.3685 14.8329C42.6148 14.5866 42.9402 14.4635 43.3448 14.4635C43.7319 14.4635 44.0485 14.5866 44.2948 14.8329C44.5411 15.0616 44.6642 15.3695 44.6642 15.7565V16.8384C45.0513 16.0644 45.6142 15.4662 46.3531 15.044C47.092 14.6218 47.9452 14.4107 48.9128 14.4107ZM48.2794 25.6785C49.4405 25.6785 50.3377 25.2915 50.9711 24.5174C51.6044 23.7258 51.921 22.6087 51.921 21.1661C51.921 19.706 51.5956 18.5713 50.9447 17.762C50.3114 16.9528 49.4229 16.5482 48.2794 16.5482C47.1184 16.5482 46.2212 16.944 45.5878 17.7356C44.9721 18.5273 44.6642 19.6532 44.6642 21.1134C44.6642 22.5735 44.9721 23.6994 45.5878 24.4911C46.2212 25.2827 47.1184 25.6785 48.2794 25.6785Z" fill="url(#paint2_linear_407_12002)"/>
<path d="M64.6091 14.4635C65.4535 14.4107 65.8757 14.7714 65.8757 15.5454C65.8757 15.9324 65.779 16.2227 65.5855 16.4162C65.3919 16.6097 65.0577 16.7241 64.5827 16.7593L63.7911 16.8384C62.6827 16.944 61.8559 17.331 61.3105 17.9995C60.7828 18.668 60.5189 19.4773 60.5189 20.4273V26.4702C60.5189 26.8924 60.3958 27.2091 60.1495 27.4202C59.9032 27.6313 59.5865 27.7368 59.1995 27.7368C58.8125 27.7368 58.487 27.6313 58.2231 27.4202C57.9768 27.2091 57.8537 26.8924 57.8537 26.4702V15.7301C57.8537 15.3255 57.9768 15.0176 58.2231 14.8065C58.487 14.5778 58.8125 14.4635 59.1995 14.4635C59.5513 14.4635 59.8416 14.5778 60.0703 14.8065C60.3166 15.0176 60.4397 15.3167 60.4397 15.7037V16.9704C60.7916 16.1963 61.3018 15.607 61.9703 15.2024C62.6388 14.7977 63.3952 14.5602 64.2397 14.4899L64.6091 14.4635Z" fill="url(#paint3_linear_407_12002)"/>
<path d="M69.1271 27.7368C68.74 27.7368 68.4146 27.6313 68.1507 27.4202C67.9044 27.2091 67.7813 26.8924 67.7813 26.4702V15.7565C67.7813 15.3343 67.9044 15.0176 68.1507 14.8065C68.4146 14.5778 68.74 14.4635 69.1271 14.4635C69.5141 14.4635 69.8308 14.5778 70.077 14.8065C70.3233 15.0176 70.4465 15.3343 70.4465 15.7565V26.4702C70.4465 26.8924 70.3233 27.2091 70.077 27.4202C69.8308 27.6313 69.5141 27.7368 69.1271 27.7368ZM69.1271 11.8774C68.6169 11.8774 68.2123 11.7367 67.9132 11.4552C67.6141 11.1737 67.4646 10.8043 67.4646 10.3469C67.4646 9.88951 67.6141 9.52887 67.9132 9.26499C68.2123 8.98351 68.6169 8.84277 69.1271 8.84277C69.6196 8.84277 70.0155 8.98351 70.3145 9.26499C70.6312 9.52887 70.7895 9.88951 70.7895 10.3469C70.7895 10.8043 70.64 11.1737 70.3409 11.4552C70.0419 11.7367 69.6372 11.8774 69.1271 11.8774Z" fill="url(#paint4_linear_407_12002)"/>
<path d="M89.2135 14.4107C92.0987 14.4107 93.5412 16.1435 93.5412 19.6092V26.4702C93.5412 26.8748 93.4181 27.1915 93.1718 27.4202C92.9255 27.6313 92.6 27.7368 92.1954 27.7368C91.8084 27.7368 91.4917 27.6313 91.2454 27.4202C90.9991 27.1915 90.876 26.8748 90.876 26.4702V19.6356C90.876 18.5625 90.6825 17.7884 90.2955 17.3134C89.9084 16.8208 89.3015 16.5746 88.4747 16.5746C87.5071 16.5746 86.7418 16.9088 86.1789 17.5773C85.6159 18.2282 85.3345 19.1254 85.3345 20.2689V26.4702C85.3345 26.8748 85.2113 27.1915 84.965 27.4202C84.7187 27.6313 84.3933 27.7368 83.9886 27.7368C83.6016 27.7368 83.285 27.6313 83.0387 27.4202C82.7924 27.1915 82.6692 26.8748 82.6692 26.4702V19.6356C82.6692 18.5625 82.4757 17.7884 82.0887 17.3134C81.7017 16.8208 81.0947 16.5746 80.2679 16.5746C79.3003 16.5746 78.5263 16.9088 77.9457 17.5773C77.3828 18.2282 77.1013 19.1254 77.1013 20.2689V26.4702C77.1013 26.8748 76.9781 27.1915 76.7319 27.4202C76.4856 27.6313 76.1689 27.7368 75.7819 27.7368C75.3948 27.7368 75.0694 27.6313 74.8055 27.4202C74.5592 27.1915 74.4361 26.8748 74.4361 26.4702V15.7301C74.4361 15.3431 74.568 15.0352 74.8319 14.8065C75.0958 14.5778 75.4124 14.4635 75.7819 14.4635C76.1513 14.4635 76.4504 14.5778 76.6791 14.8065C76.9254 15.0176 77.0485 15.3167 77.0485 15.7037V16.6801C77.4355 15.9412 77.9721 15.3783 78.6582 14.9913C79.3443 14.6042 80.1359 14.4107 81.0331 14.4107C82.0183 14.4107 82.8276 14.613 83.4609 15.0176C84.1118 15.4223 84.5956 16.0468 84.9122 16.8912C85.2993 16.1348 85.871 15.5366 86.6275 15.0968C87.3839 14.6394 88.246 14.4107 89.2135 14.4107Z" fill="url(#paint5_linear_407_12002)"/>
<path d="M101.941 27.7896C100.146 27.7896 98.6774 27.4202 97.5339 26.6813C97.2172 26.4878 96.9885 26.2855 96.8478 26.0744C96.7247 25.8633 96.6631 25.6258 96.6631 25.3619C96.6631 25.0804 96.7423 24.8429 96.9006 24.6494C97.0589 24.4559 97.2612 24.3591 97.5075 24.3591C97.7362 24.3591 98.0969 24.4999 98.5894 24.7813C99.1172 25.0628 99.6274 25.2915 100.12 25.4674C100.63 25.6434 101.263 25.7313 102.02 25.7313C102.864 25.7313 103.524 25.5818 103.999 25.2827C104.474 24.9836 104.712 24.5614 104.712 24.0161C104.712 23.6642 104.615 23.3827 104.421 23.1716C104.245 22.9605 103.929 22.7758 103.471 22.6175C103.014 22.4416 102.337 22.2568 101.439 22.0633C99.8913 21.7291 98.7742 21.2805 98.0881 20.7175C97.4196 20.137 97.0853 19.3541 97.0853 18.369C97.0853 17.6125 97.3052 16.9352 97.745 16.3371C98.1848 15.7213 98.7918 15.2463 99.5658 14.9121C100.34 14.5778 101.219 14.4107 102.205 14.4107C102.908 14.4107 103.594 14.5075 104.263 14.701C104.931 14.8769 105.521 15.1408 106.031 15.4926C106.611 15.8797 106.902 16.3283 106.902 16.8384C106.902 17.1199 106.814 17.3574 106.638 17.5509C106.48 17.7444 106.286 17.8412 106.057 17.8412C105.899 17.8412 105.741 17.806 105.582 17.7356C105.424 17.6653 105.213 17.5509 104.949 17.3926C104.474 17.1111 104.025 16.8912 103.603 16.7329C103.199 16.5746 102.688 16.4954 102.073 16.4954C101.334 16.4954 100.736 16.6537 100.278 16.9704C99.8385 17.287 99.6186 17.7181 99.6186 18.2634C99.6186 18.756 99.8209 19.143 100.226 19.4245C100.648 19.6884 101.431 19.9435 102.574 20.1898C103.753 20.4361 104.676 20.7175 105.345 21.0342C106.013 21.3508 106.488 21.7467 106.77 22.2217C107.069 22.6791 107.218 23.2684 107.218 23.9897C107.218 25.1332 106.735 26.0568 105.767 26.7605C104.817 27.4466 103.542 27.7896 101.941 27.7896Z" fill="url(#paint6_linear_407_12002)"/>
<path d="M120.529 24.3591C120.776 24.3591 120.978 24.4559 121.136 24.6494C121.295 24.8429 121.374 25.0892 121.374 25.3883C121.374 25.8984 121.057 26.3294 120.424 26.6813C119.808 27.0331 119.131 27.3058 118.392 27.4993C117.671 27.6928 116.976 27.7896 116.307 27.7896C114.266 27.7896 112.657 27.2003 111.478 26.0216C110.299 24.8253 109.71 23.198 109.71 21.1397C109.71 19.8203 109.965 18.6504 110.475 17.6301C111.003 16.6097 111.733 15.8181 112.666 15.2551C113.616 14.6922 114.689 14.4107 115.885 14.4107C117.609 14.4107 118.972 14.9649 119.975 16.0732C120.978 17.1815 121.479 18.6768 121.479 20.5592C121.479 21.2629 121.163 21.6147 120.529 21.6147H112.375C112.551 24.3415 113.862 25.7049 116.307 25.7049C116.958 25.7049 117.521 25.617 117.996 25.441C118.471 25.2651 118.972 25.0364 119.5 24.7549C119.553 24.7198 119.694 24.6494 119.922 24.5438C120.169 24.4207 120.371 24.3591 120.529 24.3591ZM115.938 16.3635C114.917 16.3635 114.099 16.6889 113.484 17.3398C112.868 17.9907 112.498 18.9055 112.375 20.0842H119.183C119.131 18.8879 118.823 17.9731 118.26 17.3398C117.715 16.6889 116.94 16.3635 115.938 16.3635Z" fill="url(#paint7_linear_407_12002)"/>
<path d="M126.026 27.7368C125.639 27.7368 125.313 27.6313 125.05 27.4202C124.803 27.2091 124.68 26.8924 124.68 26.4702V10.1622C124.68 9.73998 124.803 9.42332 125.05 9.21221C125.313 8.98351 125.639 8.86916 126.026 8.86916C126.413 8.86916 126.73 8.98351 126.976 9.21221C127.222 9.42332 127.345 9.73998 127.345 10.1622V26.4702C127.345 26.8924 127.222 27.2091 126.976 27.4202C126.73 27.6313 126.413 27.7368 126.026 27.7368Z" fill="url(#paint8_linear_407_12002)"/>
<path d="M132.681 27.7368C132.294 27.7368 131.968 27.6313 131.704 27.4202C131.458 27.2091 131.335 26.8924 131.335 26.4702V10.1622C131.335 9.73998 131.458 9.42332 131.704 9.21221C131.968 8.98351 132.294 8.86916 132.681 8.86916C133.068 8.86916 133.384 8.98351 133.631 9.21221C133.877 9.42332 134 9.73998 134 10.1622V26.4702C134 26.8924 133.877 27.2091 133.631 27.4202C133.384 27.6313 133.068 27.7368 132.681 27.7368Z" fill="url(#paint9_linear_407_12002)"/>
<defs>
<linearGradient id="paint0_linear_407_12002" x1="11.2729" y1="23.6172" x2="16.7518" y2="31.4083" gradientUnits="userSpaceOnUse">
<stop stop-color="#BE34FF"/>
<stop offset="1" stop-color="#5800B1"/>
</linearGradient>
<linearGradient id="paint1_linear_407_12002" x1="17.53" y1="5.87332" x2="27.1695" y2="21.7847" gradientUnits="userSpaceOnUse">
<stop stop-color="#BE34FF"/>
<stop offset="1" stop-color="#5800B1"/>
</linearGradient>
<linearGradient id="paint2_linear_407_12002" x1="69.0001" y1="9" x2="71.1216" y2="42.3901" gradientUnits="userSpaceOnUse">
<stop stop-color="#BE34FF"/>
<stop offset="1" stop-color="#5800B1"/>
</linearGradient>
<linearGradient id="paint3_linear_407_12002" x1="69.0001" y1="9" x2="71.1216" y2="42.3901" gradientUnits="userSpaceOnUse">
<stop stop-color="#BE34FF"/>
<stop offset="1" stop-color="#5800B1"/>
</linearGradient>
<linearGradient id="paint4_linear_407_12002" x1="69.0001" y1="9" x2="71.1216" y2="42.3901" gradientUnits="userSpaceOnUse">
<stop stop-color="#BE34FF"/>
<stop offset="1" stop-color="#5800B1"/>
</linearGradient>
<linearGradient id="paint5_linear_407_12002" x1="69.0001" y1="9" x2="71.1216" y2="42.3901" gradientUnits="userSpaceOnUse">
<stop stop-color="#BE34FF"/>
<stop offset="1" stop-color="#5800B1"/>
</linearGradient>
<linearGradient id="paint6_linear_407_12002" x1="69.0001" y1="9" x2="71.1216" y2="42.3901" gradientUnits="userSpaceOnUse">
<stop stop-color="#BE34FF"/>
<stop offset="1" stop-color="#5800B1"/>
</linearGradient>
<linearGradient id="paint7_linear_407_12002" x1="69.0001" y1="9" x2="71.1216" y2="42.3901" gradientUnits="userSpaceOnUse">
<stop stop-color="#BE34FF"/>
<stop offset="1" stop-color="#5800B1"/>
</linearGradient>
<linearGradient id="paint8_linear_407_12002" x1="69.0001" y1="9" x2="71.1216" y2="42.3901" gradientUnits="userSpaceOnUse">
<stop stop-color="#BE34FF"/>
<stop offset="1" stop-color="#5800B1"/>
</linearGradient>
<linearGradient id="paint9_linear_407_12002" x1="69.0001" y1="9" x2="71.1216" y2="42.3901" gradientUnits="userSpaceOnUse">
<stop stop-color="#BE34FF"/>
<stop offset="1" stop-color="#5800B1"/>
</linearGradient>
<clipPath id="clip0_407_12002">
<rect width="31.738" height="31.738" fill="white" transform="translate(4 4.7793)"/>
</clipPath>
</defs>
</svg>
